<?xml version="1.0" encoding="UTF-8" standalone="no"?>
<!DOCTYPE svg PUBLIC "-//W3C//DTD SVG 1.1//EN"
 "http://www.w3.org/Graphics/SVG/1.1/DTD/svg11.dtd">
<!-- Generated by graphviz version 2.43.0 (0)
 -->
<!-- Title: Cache Pages: 1 -->
<svg width="335pt" height="260pt"
 viewBox="0.00 0.00 334.50 260.00" xmlns="http://www.w3.org/2000/svg" xmlns:xlink="http://www.w3.org/1999/xlink">
<g id="graph0" class="graph" transform="scale(1 1) rotate(0) translate(4 256)">
<title>Cache</title>
<polygon fill="white" stroke="transparent" points="-4,4 -4,-256 330.5,-256 330.5,4 -4,4"/>
<!-- cpu1 -->
<g id="node1" class="node">
<title>cpu1</title>
<polygon fill="none" stroke="black" points="64,-252 2,-252 2,-216 64,-216 64,-252"/>
<text text-anchor="middle" x="33" y="-230.3" font-family="Times,serif" font-size="14.00">CPU 1</text>
</g>
<!-- cache1 -->
<g id="node4" class="node">
<title>cache1</title>
<polygon fill="none" stroke="black" points="66,-180 0,-180 0,-144 66,-144 66,-180"/>
<text text-anchor="middle" x="33" y="-158.3" font-family="Times,serif" font-size="14.00">cache1</text>
</g>
<!-- cpu1&#45;&gt;cache1 -->
<g id="edge1" class="edge">
<title>cpu1&#45;&gt;cache1</title>
<path fill="none" stroke="black" d="M33,-215.7C33,-207.98 33,-198.71 33,-190.11"/>
<polygon fill="black" stroke="black" points="36.5,-190.1 33,-180.1 29.5,-190.1 36.5,-190.1"/>
</g>
<!-- cpu2 -->
<g id="node2" class="node">
<title>cpu2</title>
<polygon fill="none" stroke="black" points="149,-252 87,-252 87,-216 149,-216 149,-252"/>
<text text-anchor="middle" x="118" y="-230.3" font-family="Times,serif" font-size="14.00">CPU 2</text>
</g>
<!-- cpuN -->
<g id="node3" class="node">
<title>cpuN</title>
<polygon fill="none" stroke="black" points="323.5,-252 258.5,-252 258.5,-216 323.5,-216 323.5,-252"/>
<text text-anchor="middle" x="291" y="-230.3" font-family="Times,serif" font-size="14.00">CPU N</text>
</g>
<!-- cpu2&#45;&gt;cpuN -->
<g id="edge4" class="edge">
<title>cpu2&#45;&gt;cpuN</title>
<path fill="none" stroke="black" stroke-dasharray="1,5" d="M149.09,-234C185.49,-234 221.89,-234 258.29,-234"/>
</g>
<!-- cache2 -->
<g id="node5" class="node">
<title>cache2</title>
<polygon fill="none" stroke="black" points="150,-180 84,-180 84,-144 150,-144 150,-180"/>
<text text-anchor="middle" x="117" y="-158.3" font-family="Times,serif" font-size="14.00">cache2</text>
</g>
<!-- cpu2&#45;&gt;cache2 -->
<g id="edge2" class="edge">
<title>cpu2&#45;&gt;cache2</title>
<path fill="none" stroke="black" d="M117.75,-215.7C117.64,-207.98 117.51,-198.71 117.39,-190.11"/>
<polygon fill="black" stroke="black" points="120.89,-190.05 117.24,-180.1 113.89,-190.15 120.89,-190.05"/>
</g>
<!-- cacheN -->
<g id="node6" class="node">
<title>cacheN</title>
<polygon fill="none" stroke="black" points="326.5,-180 257.5,-180 257.5,-144 326.5,-144 326.5,-180"/>
<text text-anchor="middle" x="292" y="-158.3" font-family="Times,serif" font-size="14.00">cacheN</text>
</g>
<!-- cpuN&#45;&gt;cacheN -->
<g id="edge3" class="edge">
<title>cpuN&#45;&gt;cacheN</title>
<path fill="none" stroke="black" d="M291.25,-215.7C291.36,-207.98 291.49,-198.71 291.61,-190.11"/>
<polygon fill="black" stroke="black" points="295.11,-190.15 291.76,-180.1 288.11,-190.05 295.11,-190.15"/>
</g>
<!-- memory_bus -->
<g id="node7" class="node">
<title>memory_bus</title>
<ellipse fill="none" stroke="black" cx="117" cy="-90" rx="68.79" ry="18"/>
<text text-anchor="middle" x="117" y="-86.3" font-family="Times,serif" font-size="14.00">Memory bus</text>
</g>
<!-- cache1&#45;&gt;memory_bus -->
<g id="edge6" class="edge">
<title>cache1&#45;&gt;memory_bus</title>
<path fill="none" stroke="black" d="M53.76,-143.7C64.58,-134.68 77.95,-123.55 89.6,-113.83"/>
<polygon fill="black" stroke="black" points="91.9,-116.47 97.34,-107.38 87.42,-111.1 91.9,-116.47"/>
</g>
<!-- cache2&#45;&gt;cacheN -->
<g id="edge5" class="edge">
<title>cache2&#45;&gt;cacheN</title>
<path fill="none" stroke="black" stroke-dasharray="1,5" d="M150.15,-162C185.89,-162 221.63,-162 257.37,-162"/>
</g>
<!-- cache2&#45;&gt;memory_bus -->
<g id="edge7" class="edge">
<title>cache2&#45;&gt;memory_bus</title>
<path fill="none" stroke="black" d="M117,-143.7C117,-135.98 117,-126.71 117,-118.11"/>
<polygon fill="black" stroke="black" points="120.5,-118.1 117,-108.1 113.5,-118.1 120.5,-118.1"/>
</g>
<!-- cacheN&#45;&gt;memory_bus -->
<g id="edge8" class="edge">
<title>cacheN&#45;&gt;memory_bus</title>
<path fill="none" stroke="black" d="M257.43,-147.17C230.19,-136.28 192,-121 162.32,-109.13"/>
<polygon fill="black" stroke="black" points="163.59,-105.87 153.01,-105.4 160.99,-112.37 163.59,-105.87"/>
</g>
<!-- main_memory -->
<g id="node8" class="node">
<title>main_memory</title>
<ellipse fill="none" stroke="black" cx="117" cy="-18" rx="75.29" ry="18"/>
<text text-anchor="middle" x="117" y="-14.3" font-family="Times,serif" font-size="14.00">Main memory</text>
</g>
<!-- memory_bus&#45;&gt;main_memory -->
<g id="edge9" class="edge">
<title>memory_bus&#45;&gt;main_memory</title>
<path fill="none" stroke="black" d="M117,-61.67C117,-56.69 117,-51.49 117,-46.51"/>
<polygon fill="black" stroke="black" points="113.5,-61.7 117,-71.7 120.5,-61.7 113.5,-61.7"/>
<polygon fill="black" stroke="black" points="120.5,-46.1 117,-36.1 113.5,-46.1 120.5,-46.1"/>
</g>
</g>
</svg>
