<?xml version="1.0" encoding="UTF-8" standalone="no"?>
<!DOCTYPE svg PUBLIC "-//W3C//DTD SVG 1.1//EN"
 "http://www.w3.org/Graphics/SVG/1.1/DTD/svg11.dtd">
<!-- Generated by graphviz version 2.43.0 (0)
 -->
<!-- Title: Cache Pages: 1 -->
<svg width="299pt" height="260pt"
 viewBox="0.00 0.00 298.50 260.00" xmlns="http://www.w3.org/2000/svg" xmlns:xlink="http://www.w3.org/1999/xlink">
<g id="graph0" class="graph" transform="scale(1 1) rotate(0) translate(4 256)">
<title>Cache</title>
<polygon fill="white" stroke="transparent" points="-4,4 -4,-256 294.5,-256 294.5,4 -4,4"/>
<!-- cpu1 -->
<g id="node1" class="node">
<title>cpu1</title>
<polygon fill="none" stroke="black" points="54,-252 0,-252 0,-216 54,-216 54,-252"/>
<text text-anchor="middle" x="27" y="-230.3" font-family="Times,serif" font-size="14.00">CPU 1</text>
</g>
<!-- cache1 -->
<g id="node4" class="node">
<title>cache1</title>
<polygon fill="none" stroke="black" points="54,-180 0,-180 0,-144 54,-144 54,-180"/>
<text text-anchor="middle" x="27" y="-158.3" font-family="Times,serif" font-size="14.00">cache1</text>
</g>
<!-- cpu1&#45;&gt;cache1 -->
<g id="edge1" class="edge">
<title>cpu1&#45;&gt;cache1</title>
<path fill="none" stroke="black" d="M27,-215.7C27,-207.98 27,-198.71 27,-190.11"/>
<polygon fill="black" stroke="black" points="30.5,-190.1 27,-180.1 23.5,-190.1 30.5,-190.1"/>
</g>
<!-- cpu2 -->
<g id="node2" class="node">
<title>cpu2</title>
<polygon fill="none" stroke="black" points="126,-252 72,-252 72,-216 126,-216 126,-252"/>
<text text-anchor="middle" x="99" y="-230.3" font-family="Times,serif" font-size="14.00">CPU 2</text>
</g>
<!-- cpuN -->
<g id="node3" class="node">
<title>cpuN</title>
<polygon fill="none" stroke="black" points="290,-252 234,-252 234,-216 290,-216 290,-252"/>
<text text-anchor="middle" x="262" y="-230.3" font-family="Times,serif" font-size="14.00">CPU N</text>
</g>
<!-- cpu2&#45;&gt;cpuN -->
<g id="edge4" class="edge">
<title>cpu2&#45;&gt;cpuN</title>
<path fill="none" stroke="black" stroke-dasharray="1,5" d="M126.06,-234C161.99,-234 197.92,-234 233.86,-234"/>
</g>
<!-- cache2 -->
<g id="node5" class="node">
<title>cache2</title>
<polygon fill="none" stroke="black" points="126,-180 72,-180 72,-144 126,-144 126,-180"/>
<text text-anchor="middle" x="99" y="-158.3" font-family="Times,serif" font-size="14.00">cache2</text>
</g>
<!-- cpu2&#45;&gt;cache2 -->
<g id="edge2" class="edge">
<title>cpu2&#45;&gt;cache2</title>
<path fill="none" stroke="black" d="M99,-215.7C99,-207.98 99,-198.71 99,-190.11"/>
<polygon fill="black" stroke="black" points="102.5,-190.1 99,-180.1 95.5,-190.1 102.5,-190.1"/>
</g>
<!-- cacheN -->
<g id="node6" class="node">
<title>cacheN</title>
<polygon fill="none" stroke="black" points="290.5,-180 233.5,-180 233.5,-144 290.5,-144 290.5,-180"/>
<text text-anchor="middle" x="262" y="-158.3" font-family="Times,serif" font-size="14.00">cacheN</text>
</g>
<!-- cpuN&#45;&gt;cacheN -->
<g id="edge3" class="edge">
<title>cpuN&#45;&gt;cacheN</title>
<path fill="none" stroke="black" d="M262,-215.7C262,-207.98 262,-198.71 262,-190.11"/>
<polygon fill="black" stroke="black" points="265.5,-190.1 262,-180.1 258.5,-190.1 265.5,-190.1"/>
</g>
<!-- memory_bus -->
<g id="node7" class="node">
<title>memory_bus</title>
<ellipse fill="none" stroke="black" cx="99" cy="-90" rx="56.59" ry="18"/>
<text text-anchor="middle" x="99" y="-86.3" font-family="Times,serif" font-size="14.00">Memory bus</text>
</g>
<!-- cache1&#45;&gt;memory_bus -->
<g id="edge6" class="edge">
<title>cache1&#45;&gt;memory_bus</title>
<path fill="none" stroke="black" d="M44.8,-143.7C53.82,-134.92 64.92,-124.13 74.72,-114.61"/>
<polygon fill="black" stroke="black" points="77.17,-117.1 81.9,-107.62 72.29,-112.08 77.17,-117.1"/>
</g>
<!-- cache2&#45;&gt;cacheN -->
<g id="edge5" class="edge">
<title>cache2&#45;&gt;cacheN</title>
<path fill="none" stroke="black" stroke-dasharray="1,5" d="M126.06,-162C161.82,-162 197.57,-162 233.33,-162"/>
</g>
<!-- cache2&#45;&gt;memory_bus -->
<g id="edge7" class="edge">
<title>cache2&#45;&gt;memory_bus</title>
<path fill="none" stroke="black" d="M99,-143.7C99,-135.98 99,-126.71 99,-118.11"/>
<polygon fill="black" stroke="black" points="102.5,-118.1 99,-108.1 95.5,-118.1 102.5,-118.1"/>
</g>
<!-- cacheN&#45;&gt;memory_bus -->
<g id="edge8" class="edge">
<title>cacheN&#45;&gt;memory_bus</title>
<path fill="none" stroke="black" d="M233.23,-148.65C207.62,-137.64 169.81,-121.41 140.85,-108.97"/>
<polygon fill="black" stroke="black" points="141.96,-105.64 131.39,-104.91 139.2,-112.07 141.96,-105.64"/>
</g>
<!-- main_memory -->
<g id="node8" class="node">
<title>main_memory</title>
<ellipse fill="none" stroke="black" cx="99" cy="-18" rx="62.29" ry="18"/>
<text text-anchor="middle" x="99" y="-14.3" font-family="Times,serif" font-size="14.00">Main memory</text>
</g>
<!-- memory_bus&#45;&gt;main_memory -->
<g id="edge9" class="edge">
<title>memory_bus&#45;&gt;main_memory</title>
<path fill="none" stroke="black" d="M99,-61.67C99,-56.69 99,-51.49 99,-46.51"/>
<polygon fill="black" stroke="black" points="95.5,-61.7 99,-71.7 102.5,-61.7 95.5,-61.7"/>
<polygon fill="black" stroke="black" points="102.5,-46.1 99,-36.1 95.5,-46.1 102.5,-46.1"/>
</g>
</g>
</svg>
